<?xml version="1.0" encoding="UTF-8"?>
<svg width="220px" height="101px" viewBox="0 0 220 101" version="1.1" xmlns="http://www.w3.org/2000/svg" xmlns:xlink="http://www.w3.org/1999/xlink">
    <title>Group</title>
    <g id="Page-1" stroke="none" stroke-width="1" fill="none" fill-rule="evenodd">
        <g id="Group" transform="translate(0.952637, 0.000000)" fill="#000000">
            <text id="BX" font-family="RubikMonoOne-Regular, Rubik Mono One" font-size="82" font-weight="normal">
                <tspan x="78.3473633" y="76">BX</tspan>
            </text>
            <path d="M10.0473633,18 L26.0473633,18 C27.7042175,18 29.0473633,19.3431458 29.0473633,21 L29.0473633,41.5 L29.0473633,41.5 L45.253418,41.5 L45.253418,21 C45.253418,19.3431458 46.5965637,18 48.253418,18 L63.5947266,18 C65.2515808,18 66.5947266,19.3431458 66.5947266,21 L66.5947266,34.4008789 L66.5947266,34.4008789 L70.7456055,34.4008789 C72.4024597,34.4008789 73.7456055,35.7440247 73.7456055,37.4008789 L73.7456055,55.6298828 C73.7456055,57.2867371 72.4024597,58.6298828 70.7456055,58.6298828 L66.5947266,58.6298828 L66.5947266,58.6298828 L66.5947266,73 C66.5947266,74.6568542 65.2515808,76 63.5947266,76 L48.253418,76 C46.5965637,76 45.253418,74.6568542 45.253418,73 L45.253418,52.3647461 L45.253418,52.3647461 L29.0473633,52.3647461 L29.0473633,73 C29.0473633,74.6568542 27.7042175,76 26.0473633,76 L10.0473633,76 C8.39050903,76 7.04736328,74.6568542 7.04736328,73 L7.04736328,58.6298828 L7.04736328,58.6298828 L3,58.6298828 C1.34314575,58.6298828 7.30833348e-15,57.2867371 7.10542736e-15,55.6298828 L7.10542736e-15,37.4008789 C2.00446716e-15,35.7440247 1.34314575,34.4008789 3,34.4008789 L7.04736328,34.4008789 L7.04736328,34.4008789 L7.04736328,21 C7.04736328,19.3431458 8.39050903,18 10.0473633,18 Z" id="Rectangle"></path>
        </g>
    </g>
</svg>